HIERARCHY
ROOT hip
{
  OFFSET 126.155 84.1412 64.895
  CHANNELS 6 Xposition Yposition Zposition Zrotation Xrotation Yrotation
  JOINT abdomen
  {
    OFFSET 0 20.6881 -0.73152
    CHANNELS 3 Zrotation Xrotation Yrotation
    JOINT chest
    {
      OFFSET 0 11.7043 -0.48768
      CHANNELS 3 Zrotation Xrotation Yrotation
      JOINT neck
      {
        OFFSET 0 22.1894 -2.19456
        CHANNELS 3 Zrotation Xrotation Yrotation
        JOINT head
        {
          OFFSET -0.24384 7.07133 1.2192
          CHANNELS 3 Zrotation Xrotation Yrotation
          JOINT leftEye
          {
            OFFSET 4.14528 8.04674 8.04672
            CHANNELS 3 Zrotation Xrotation Yrotation
            End Site
            {
              OFFSET 1 0 0
            }
          }
          JOINT rightEye
          {
            OFFSET -3.6576 8.04674 8.04672
            CHANNELS 3 Zrotation Xrotation Yrotation
            End Site
            {
              OFFSET 1 0 0
            }
          }
        }
      }
      JOINT rCollar
      {
        OFFSET -2.68224 19.2634 -4.8768
        CHANNELS 3 Zrotation Xrotation Yrotation
        JOINT rShldr
        {
          OFFSET -8.77824 -1.95073 1.46304
          CHANNELS 3 Zrotation Xrotation Yrotation
          JOINT rForeArm
          {
            OFFSET -28.1742 -1.7115 0.48768
            CHANNELS 3 Zrotation Xrotation Yrotation
            JOINT rHand
            {
              OFFSET -22.5879 0.773209 7.07136
              CHANNELS 3 Zrotation Xrotation Yrotation
              JOINT rThumb1
              {
                OFFSET -1.2192 -0.487915 3.41376
                CHANNELS 3 Zrotation Xrotation Yrotation
                JOINT rThumb2
                {
                  OFFSET -3.37035 -0.52449 3.41376
                  CHANNELS 3 Zrotation Xrotation Yrotation
                  End Site
                  {
                    OFFSET -1.78271 -1.18214 1.43049
                  }
                }
              }
              JOINT rIndex1
              {
                OFFSET -7.75947 0.938293 5.60832
                CHANNELS 3 Zrotation Xrotation Yrotation
                JOINT rIndex2
                {
                  OFFSET -2.54057 -0.884171 1.56538
                  CHANNELS 3 Zrotation Xrotation Yrotation
                  End Site
                  {
                    OFFSET -1.62519 -0.234802 1.16502
                  }
                }
              }
              JOINT rMid1
              {
                OFFSET -8.24714 1.18213 3.41376
                CHANNELS 3 Zrotation Xrotation Yrotation
                JOINT rMid2
                {
                  OFFSET -3.10165 -0.590103 1.0647
                  CHANNELS 3 Zrotation Xrotation Yrotation
                  End Site
                  {
                    OFFSET -2.48547 -0.328903 0.83742
                  }
                }
              }
              JOINT rRing1
              {
                OFFSET -8.82822 0.546677 1.51678
                CHANNELS 3 Zrotation Xrotation Yrotation
                JOINT rRing2
                {
                  OFFSET -2.60934 -0.819778 -0.0198488
                  CHANNELS 3 Zrotation Xrotation Yrotation
                  End Site
                  {
                    OFFSET -2.33842 -0.294052 0.168128
                  }
                }
              }
              JOINT rPinky1
              {
                OFFSET -8.27202 -0.0477905 -0.4584
                CHANNELS 3 Zrotation Xrotation Yrotation
                JOINT rPinky2
                {
                  OFFSET -1.82734 -0.647385 -0.700984
                  CHANNELS 3 Zrotation Xrotation Yrotation
                  End Site
                  {
                    OFFSET -1.69225 -0.51767 -0.607171
                  }
                }
              }
            }
          }
        }
      }
      JOINT lCollar
      {
        OFFSET 2.68224 19.2634 -4.8768
        CHANNELS 3 Zrotation Xrotation Yrotation
        JOINT lShldr
        {
          OFFSET 8.77824 -1.95073 1.46304
          CHANNELS 3 Zrotation Xrotation Yrotation
          JOINT lForeArm
          {
            OFFSET 28.1742 -1.7115 0.48768
            CHANNELS 3 Zrotation Xrotation Yrotation
            JOINT lHand
            {
              OFFSET 22.5879 0.773209 7.07136
              CHANNELS 3 Zrotation Xrotation Yrotation
              JOINT lThumb1
              {
                OFFSET 1.2192 -0.487915 3.41376
                CHANNELS 3 Zrotation Xrotation Yrotation
                JOINT lThumb2
                {
                  OFFSET 3.37035 -0.52449 3.41376
                  CHANNELS 3 Zrotation Xrotation Yrotation
                  End Site
                  {
                    OFFSET 1.78271 -1.18214 1.43049
                  }
                }
              }
              JOINT lIndex1
              {
                OFFSET 7.75947 0.938293 5.60832
                CHANNELS 3 Zrotation Xrotation Yrotation
                JOINT lIndex2
                {
                  OFFSET 2.54057 -0.884171 1.56538
                  CHANNELS 3 Zrotation Xrotation Yrotation
                  End Site
                  {
                    OFFSET 1.62519 -0.234802 1.16502
                  }
                }
              }
              JOINT lMid1
              {
                OFFSET 8.24714 1.18213 3.41376
                CHANNELS 3 Zrotation Xrotation Yrotation
                JOINT lMid2
                {
                  OFFSET 3.10165 -0.590103 1.0647
                  CHANNELS 3 Zrotation Xrotation Yrotation
                  End Site
                  {
                    OFFSET 2.48547 -0.328903 0.83742
                  }
                }
              }
              JOINT lRing1
              {
                OFFSET 8.82822 0.546677 1.51678
                CHANNELS 3 Zrotation Xrotation Yrotation
                JOINT lRing2
                {
                  OFFSET 2.60934 -0.819778 -0.0198488
                  CHANNELS 3 Zrotation Xrotation Yrotation
                  End Site
                  {
                    OFFSET 2.33842 -0.294052 0.168128
                  }
                }
              }
              JOINT lPinky1
              {
                OFFSET 8.27202 -0.0477905 -0.4584
                CHANNELS 3 Zrotation Xrotation Yrotation
                JOINT lPinky2
                {
                  OFFSET 1.82734 -0.647385 -0.700984
                  CHANNELS 3 Zrotation Xrotation Yrotation
                  End Site
                  {
                    OFFSET 1.69225 -0.51767 -0.607171
                  }
                }
              }
            }
          }
        }
      }
    }
  }
  JOINT rButtock
  {
    OFFSET -8.77824 4.35084 1.2192
    CHANNELS 3 Zrotation Xrotation Yrotation
    JOINT rThigh
    {
      OFFSET 0 -1.70687 -2.19456
      CHANNELS 3 Zrotation Xrotation Yrotation
      JOINT rShin
      {
        OFFSET 0 -36.8199 0.73152
        CHANNELS 3 Zrotation Xrotation Yrotation
        JOINT rFoot
        {
          OFFSET 0.73152 -45.1104 -5.12064
          CHANNELS 3 Zrotation Xrotation Yrotation
          End Site
          {
            OFFSET -1.1221 -3.69964 12.103
          }
        }
      }
    }
  }
  JOINT lButtock
  {
    OFFSET 8.77824 4.35084 1.2192
    CHANNELS 3 Zrotation Xrotation Yrotation
    JOINT lThigh
    {
      OFFSET 0 -1.70687 -2.19456
      CHANNELS 3 Zrotation Xrotation Yrotation
      JOINT lShin
      {
        OFFSET 0 -36.8199 0.73152
        CHANNELS 3 Zrotation Xrotation Yrotation
        JOINT lFoot
        {
          OFFSET -0.73152 -45.1104 -5.12064
          CHANNELS 3 Zrotation Xrotation Yrotation
          End Site
          {
            OFFSET 1.1221 -3.69964 12.103
          }
        }
      }
    }
  }
}
MOTION
Frames:	5
Frame Time:	0.00833333
-47.9754 84.8839 -62.3299 0.147523 -0.000239383 -0.00252447 -0.194078 -0.000752046 -0.00553945 -0.0535366 -0.00112971 -0.00927453 -1.97328e-015 -1.59028e-015 1.86361e-017 -6.00081e-015 -6.36111e-015 5.59082e-017 -0 0 0 -0 0 0 -9.45564e-016 3.49426e-018 2.48481e-016 -1.91272e-014 5.40446e-016 7.95139e-016 -3.64323e-013 1.13108e-013 3.49861e-014 -4.13216e-012 -8.75895e-014 -1.27222e-014 -9.75578e-012 4.82223e-014 9.85972e-014 -1.68538e-011 8.26944e-014 1.60618e-013 -9.75158e-012 5.00937e-014 8.5875e-014 7.73091 5.47488 0.417314 -9.75561e-012 4.84041e-014 9.54166e-014 2.90554 0.965183 0.102902 -9.74569e-012 4.85035e-014 9.38264e-014 10.2786 0.731801 0.0259123 -9.75754e-012 4.92986e-014 1.04958e-013 2.22167 -0.733487 -0.20892 -1.04235e-015 3.30014e-018 -2.48481e-016 -2.30375e-014 -2.48481e-017 -3.97569e-016 -3.60943e-013 -1.05555e-013 -1.59028e-014 -4.13851e-012 1.1942e-013 6.99722e-014 -9.75616e-012 3.02573e-014 9.54166e-014 -1.68383e-011 5.08889e-014 1.65389e-013 -9.76232e-012 3.22031e-014 1.08139e-013 -7.73091 5.47488 -0.417314 -9.75576e-012 3.05134e-014 9.22361e-014 -2.90554 0.965183 -0.102902 -9.76139e-012 3.06128e-014 9.46215e-014 -10.2786 0.731801 -0.0259123 -9.74701e-012 3.29983e-014 8.5875e-014 -2.22167 -0.733487 0.20892 -2.03217e-016 0 -3.88251e-019 0.355869 -2.82713 -0.0340698 -0.00665518 -0.431856 -0.0584483 -0.50256 3.25829 0.123802 2.03217e-016 0 3.88251e-019 -0.651346 -3.58304 0.0525567 0.00445991 0.937458 0.0381194 0.504954 2.64491 -0.11159 
-53.8244 83.881 -65.8372 13.5505 -21.5968 -24.3459 -1.17231 3.44106 1.50166 0.118039 -0.984021 0.35644 -2.48604 0.137358 1.28618 1.87407 8.11337 1.8578 -0 0 0 -0 0 0 5.16276e-014 6.36959e-013 -1.09378e-014 21.4282 2.24815 0.100497 -4.97243 -2.43255 7.56918 0.0126358 2.49396 0.349305 -4.6829e-010 2.46233e-010 1.91144e-010 -8.06925e-010 4.2388e-010 3.34542e-010 -4.68287e-010 2.46237e-010 1.91132e-010 7.73091 5.47488 0.417314 -4.68291e-010 2.46235e-010 1.91141e-010 2.90554 0.965183 0.102902 -4.68283e-010 2.46235e-010 1.9114e-010 10.2786 0.731801 0.0259123 -4.68293e-010 2.46235e-010 1.9115e-010 2.22167 -0.733487 -0.20892 5.15605e-014 6.36959e-013 -1.13622e-014 -21.4357 5.35671 -1.58779 4.51659 -2.11489 -6.9852 -0.00206701 1.02019 -0.143299 -7.83095e-010 -4.01792e-010 -1.01491e-009 -1.35823e-009 -6.91644e-010 -1.75183e-009 -7.83103e-010 -4.01787e-010 -1.01489e-009 -7.73091 5.47488 -0.417314 -7.83094e-010 -4.01791e-010 -1.01491e-009 -2.90554 0.965183 -0.102902 -7.831e-010 -4.01792e-010 -1.01491e-009 -10.2786 0.731801 -0.0259123 -7.83087e-010 -4.01789e-010 -1.01492e-009 -2.22167 -0.733487 0.20892 -2.03217e-016 0 -3.88251e-019 -3.7153 -6.94885 1.1777 0.00820108 12.2514 0.125917 -0.525821 -1.57622 -0.342499 2.03217e-016 0 3.88251e-019 -1.72497 -4.51832 -1.42275 -0.0129286 6.26368 -0.0386963 0.441648 -0.070633 -0.223172 
-53.7848 83.8535 -65.5678 8.07181 -31.0452 -57.6409 -2.39242 7.08009 3.11567 0.307485 -2.02398 0.744148 -5.13155 0.271624 2.63791 3.27451 16.6762 3.93353 -0 0 0 -0 0 0 1.09935e-013 1.34014e-012 -2.26739e-014 44.0554 4.62089 0.214333 -9.53644 -4.86249 15.6141 -0.00719907 5.1325 0.72111 -9.76156e-010 5.20083e-010 4.06002e-010 -1.68198e-009 8.95331e-010 7.10531e-010 -9.76154e-010 5.20089e-010 4.05992e-010 7.73091 5.47488 0.417314 -9.76158e-010 5.20087e-010 4.05999e-010 2.90554 0.965183 0.102902 -9.76151e-010 5.20087e-010 4.05999e-010 10.2786 0.731801 0.0259123 -9.7616e-010 5.20086e-010 4.06008e-010 2.22167 -0.733487 -0.20892 1.09903e-013 1.34014e-012 -2.30186e-014 -43.7775 11.0281 -3.3192 8.73489 -4.24575 -14.3997 0.00135285 2.11641 -0.297434 -1.63562e-009 -8.39246e-010 -2.13884e-009 -2.83697e-009 -1.4446e-009 -3.69183e-009 -1.63563e-009 -8.39238e-010 -2.13881e-009 -7.73091 5.47488 -0.417314 -1.63562e-009 -8.39245e-010 -2.13884e-009 -2.90554 0.965183 -0.102902 -1.63562e-009 -8.39246e-010 -2.13884e-009 -10.2786 0.731801 -0.0259123 -1.63561e-009 -8.39244e-010 -2.13885e-009 -2.22167 -0.733487 0.20892 -2.03217e-016 0 -3.88251e-019 -7.87111 -11.2841 2.54625 -0.0721239 25.622 0.34943 -0.654945 -6.65383 -0.924213 2.03217e-016 0 3.88251e-019 -2.90418 -5.48419 -2.99405 -0.0155578 11.868 -0.121869 0.363183 -2.92724 -0.333048 
-53.7394 83.828 -65.2775 -0.272359 -21.036 -82.1529 -3.67894 10.2959 4.58186 0.498872 -2.94933 1.08915 -7.47659 0.411242 3.85864 3.91709 24.2326 6.05264 -0 0 0 -0 0 0 1.56774e-013 1.91087e-012 -3.33104e-014 64.2608 6.74438 0.303359 -13.0339 -6.78932 22.8562 -0.0539808 7.48077 1.05591 -1.38536e-009 7.38603e-010 5.73235e-010 -2.38707e-009 1.27147e-009 1.00331e-009 -1.38536e-009 7.38612e-010 5.73226e-010 7.73091 5.47488 0.417314 -1.38536e-009 7.38609e-010 5.73232e-010 2.90554 0.965183 0.102902 -1.38536e-009 7.38608e-010 5.73233e-010 10.2786 0.731801 0.0259123 -1.38536e-009 7.38608e-010 5.73241e-010 2.22167 -0.733487 -0.20892 1.56766e-013 1.91087e-012 -3.35896e-014 -63.3869 16.0197 -4.93464 12.0341 -5.96827 -21.0608 0.00912664 3.06049 -0.430443 -2.32977e-009 -1.20544e-009 -3.04493e-009 -4.04101e-009 -2.07503e-009 -5.25581e-009 -2.32978e-009 -1.20543e-009 -3.0449e-009 -7.73091 5.47488 -0.417314 -2.32977e-009 -1.20543e-009 -3.04492e-009 -2.90554 0.965183 -0.102902 -2.32978e-009 -1.20544e-009 -3.04493e-009 -10.2786 0.731801 -0.0259123 -2.32977e-009 -1.20543e-009 -3.04494e-009 -2.22167 -0.733487 0.20892 -2.03217e-016 0 -3.88251e-019 -11.3181 -15.1663 3.70439 -0.257342 37.6163 0.613602 -0.811498 -11.2425 -1.29925 2.03217e-016 0 3.88251e-019 -4.01737 -6.37448 -4.38705 -0.00333987 16.916 -0.200291 0.283148 -5.50156 -0.44864 
-53.7041 83.7759 -64.9633 -2.09402 -7.55699 -89.4171 -4.73699 12.4816 5.61483 0.668321 -3.58861 1.32617 -9.05995 0.564852 4.75183 3.8927 29.3712 7.83185 -0 0 0 -0 0 0 1.74943e-013 2.15045e-012 -4.11981e-014 78.4314 8.24486 0.328291 -15.175 -7.94264 27.9494 -0.102756 9.10445 1.29054 -1.54791e-009 8.18799e-010 6.21404e-010 -2.66726e-009 1.40935e-009 1.08804e-009 -1.54791e-009 8.1881e-010 6.21394e-010 7.73091 5.47488 0.417314 -1.54791e-009 8.18806e-010 6.21401e-010 2.90554 0.965183 0.102902 -1.54791e-009 8.18805e-010 6.21402e-010 10.2786 0.731801 0.0259123 -1.54791e-009 8.18805e-010 6.2141e-010 2.22167 -0.733487 -0.20892 1.74929e-013 2.15045e-012 -4.14466e-014 -76.8375 19.3613 -6.09236 14.0914 -7.02842 -25.7381 0.0161376 3.62433 -0.510054 -2.62801e-009 -1.39347e-009 -3.40641e-009 -4.55831e-009 -2.39914e-009 -5.87974e-009 -2.62802e-009 -1.39346e-009 -3.40638e-009 -7.73091 5.47488 -0.417314 -2.62801e-009 -1.39347e-009 -3.40641e-009 -2.90554 0.965183 -0.102902 -2.62801e-009 -1.39347e-009 -3.40641e-009 -10.2786 0.731801 -0.0259123 -2.628e-009 -1.39347e-009 -3.40642e-009 -2.22167 -0.733487 0.20892 -2.03217e-016 0 -3.88251e-019 -13.4177 -17.9446 4.23541 -0.488885 46.1712 0.872776 -0.797861 -14.6138 -1.11859 2.03217e-016 0 3.88251e-019 -4.86639 -7.08778 -5.32404 0.0147351 20.5736 -0.259435 0.217421 -7.37025 -0.576591 
